<?xml version="1.0" encoding="utf-8"?>
<!-- Generator: Adobe Illustrator 22.1.0, SVG Export Plug-In . SVG Version: 6.00 Build 0)  -->
<svg version="1.1" id="Layer_1" xmlns="http://www.w3.org/2000/svg" xmlns:xlink="http://www.w3.org/1999/xlink" x="0px" y="0px"
	 viewBox="0 0 110 179" style="enable-background:new 0 0 110 179;" xml:space="preserve">
<style type="text/css">
	.st0{fill:#EC3534;}
	.st1{fill:#0B1D27;}
</style>
<g>
	<path id="XMLID_1191_" class="st0" d="M28.6,9.8h2l-1.9,1.8l1,1.1l1.9-1.8l1.9,1.7l1-1.1l-1.9-1.8h1.9V4h-5.8V9.8z M30,5.5h2.9v2.9
		H30V5.5z"/>
	<path id="XMLID_1188_" class="st0" d="M34.4,29.2h-2l1.9-1.8l-1-1.1l-1.9,1.8l-1.9-1.7l-1,1.1l1.9,1.8h-1.9V35h5.8V29.2z
		 M32.9,33.6H30v-2.9h2.9V33.6z"/>
	<path id="XMLID_1185_" class="st0" d="M52.7,9.8h2l-1.9,1.8l1,1.1l1.9-1.8l1.9,1.7l1-1.1l-1.9-1.8h1.9V4h-5.8V9.8z M54.2,5.5h2.9
		v2.9h-2.9V5.5z"/>
	<path id="XMLID_1182_" class="st0" d="M58.5,29.2h-2l1.9-1.8l-1-1.1l-1.9,1.8l-1.9-1.7l-1,1.1l1.9,1.8h-1.9V35h5.8V29.2z
		 M57.1,33.6h-2.9v-2.9h2.9V33.6z"/>
	<path id="XMLID_1179_" class="st0" d="M28.6,55.2h2l-1.9,1.8l1,1.1l1.9-1.8l1.9,1.7l1-1.1l-1.9-1.8h1.9v-5.8h-5.8V55.2z M30,50.8
		h2.9v2.9H30V50.8z"/>
	<path id="XMLID_1176_" class="st0" d="M34.4,74.5h-2l1.9-1.8l-1-1.1l-1.9,1.8l-1.9-1.7l-1,1.1l1.9,1.8h-1.9v5.8h5.8V74.5z
		 M32.9,78.9H30V76h2.9V78.9z"/>
	<path id="XMLID_1173_" class="st0" d="M52.7,55.2h2l-1.9,1.8l1,1.1l1.9-1.8l1.9,1.7l1-1.1l-1.9-1.8h1.9v-5.8h-5.8V55.2z M54.2,50.8
		h2.9v2.9h-2.9V50.8z"/>
	<path id="XMLID_1170_" class="st0" d="M58.5,74.5h-2l1.9-1.8l-1-1.1l-1.9,1.8l-1.9-1.7l-1,1.1l1.9,1.8h-1.9v5.8h5.8V74.5z
		 M57.1,78.9h-2.9V76h2.9V78.9z"/>
	<path id="XMLID_1167_" class="st0" d="M28.6,100.5h2l-1.9,1.8l1,1.1l1.9-1.8l1.9,1.7l1-1.1l-1.9-1.8h1.9v-5.8h-5.8V100.5z M30,96.1
		h2.9V99H30V96.1z"/>
	<path id="XMLID_1164_" class="st0" d="M34.4,119.8h-2l1.9-1.8l-1-1.1l-1.9,1.8l-1.9-1.7l-1,1.1l1.9,1.8h-1.9v5.8h5.8V119.8z
		 M32.9,124.2H30v-2.9h2.9V124.2z"/>
	<path id="XMLID_1161_" class="st0" d="M52.7,100.5h2l-1.9,1.8l1,1.1l1.9-1.8l1.9,1.7l1-1.1l-1.9-1.8h1.9v-5.8h-5.8V100.5z
		 M54.2,96.1h2.9V99h-2.9V96.1z"/>
	<path id="XMLID_1158_" class="st0" d="M58.5,119.8h-2l1.9-1.8l-1-1.1l-1.9,1.8l-1.9-1.7l-1,1.1l1.9,1.8h-1.9v5.8h5.8V119.8z
		 M57.1,124.2h-2.9v-2.9h2.9V124.2z"/>
	<path id="XMLID_1155_" class="st0" d="M28.6,145.8h2l-1.9,1.8l1,1.1l1.9-1.8l1.9,1.7l1-1.1l-1.9-1.8h1.9V140h-5.8V145.8z M30,141.4
		h2.9v2.9H30V141.4z"/>
	<path id="XMLID_1152_" class="st0" d="M34.4,165.2h-2l1.9-1.8l-1-1.1l-1.9,1.8l-1.9-1.7l-1,1.1l1.9,1.8h-1.9v5.8h5.8V165.2z
		 M32.9,169.5H30v-2.9h2.9V169.5z"/>
	<path id="XMLID_1149_" class="st0" d="M52.7,145.8h2l-1.9,1.8l1,1.1l1.9-1.8l1.9,1.7l1-1.1l-1.9-1.8h1.9V140h-5.8V145.8z
		 M54.2,141.4h2.9v2.9h-2.9V141.4z"/>
	<path id="XMLID_1134_" class="st0" d="M58.5,165.2h-2l1.9-1.8l-1-1.1l-1.9,1.8l-1.9-1.7l-1,1.1l1.9,1.8h-1.9v5.8h5.8V165.2z
		 M57.1,169.5h-2.9v-2.9h2.9V169.5z"/>
	<path id="XMLID_22_" class="st0" d="M98.2,9.8h2l-1.9,1.8l1,1.1l1.9-1.8l1.9,1.7l1-1.1l-1.9-1.8h1.9V4h-5.8V9.8z M99.6,5.5h2.9v2.9
		h-2.9V5.5z"/>
	<path id="XMLID_19_" class="st0" d="M104,29.2h-2l1.9-1.8l-1-1.1l-1.9,1.8l-1.9-1.7l-1,1.1l1.9,1.8h-1.9V35h5.8V29.2z M102.6,33.6
		h-2.9v-2.9h2.9V33.6z"/>
	<path id="XMLID_16_" class="st0" d="M98.2,55.2h2l-1.9,1.8l1,1.1l1.9-1.8L103,58l1-1.1l-1.9-1.8h1.9v-5.8h-5.8V55.2z M99.6,50.8
		h2.9v2.9h-2.9V50.8z"/>
	<path id="XMLID_13_" class="st0" d="M104,74.5h-2l1.9-1.8l-1-1.1l-1.9,1.8l-1.9-1.7l-1,1.1l1.9,1.8h-1.9v5.8h5.8V74.5z M102.6,78.9
		h-2.9V76h2.9V78.9z"/>
	<path id="XMLID_10_" class="st0" d="M98.2,100.5h2l-1.9,1.8l1,1.1l1.9-1.8l1.9,1.7l1-1.1l-1.9-1.8h1.9v-5.8h-5.8V100.5z M99.6,96.1
		h2.9V99h-2.9V96.1z"/>
	<path id="XMLID_7_" class="st0" d="M104,119.8h-2l1.9-1.8l-1-1.1l-1.9,1.8l-1.9-1.7l-1,1.1l1.9,1.8h-1.9v5.8h5.8V119.8z
		 M102.6,124.2h-2.9v-2.9h2.9V124.2z"/>
	<path id="XMLID_4_" class="st0" d="M98.2,145.8h2l-1.9,1.8l1,1.1l1.9-1.8l1.9,1.7l1-1.1l-1.9-1.8h1.9V140h-5.8V145.8z M99.6,141.4
		h2.9v2.9h-2.9V141.4z"/>
	<path id="XMLID_1_" class="st0" d="M104,165.2h-2l1.9-1.8l-1-1.1l-1.9,1.8l-1.9-1.7l-1,1.1l1.9,1.8h-1.9v5.8h5.8V165.2z
		 M102.6,169.5h-2.9v-2.9h2.9V169.5z"/>
	<path id="XMLID_1107_" class="st0" d="M75.5,9.8h2l-1.9,1.8l1,1.1l1.9-1.8l1.9,1.7l1-1.1l-1.9-1.8h1.9V4h-5.8V9.8z M76.9,5.5h2.9
		v2.9h-2.9V5.5z"/>
	<path id="XMLID_1104_" class="st0" d="M81.3,29.2h-2l1.9-1.8l-1-1.1l-1.9,1.8l-1.9-1.7l-1,1.1l1.9,1.8h-1.9V35h5.8V29.2z
		 M79.8,33.6h-2.9v-2.9h2.9V33.6z"/>
	<path id="XMLID_1095_" class="st0" d="M75.5,55.2h2l-1.9,1.8l1,1.1l1.9-1.8l1.9,1.7l1-1.1l-1.9-1.8h1.9v-5.8h-5.8V55.2z M76.9,50.8
		h2.9v2.9h-2.9V50.8z"/>
	<path id="XMLID_38_" class="st1" d="M4.5,102.8h20.2L5,121.2L15,132l19.4-18l19.3,17.9L63.8,121l-19.6-18.2h20.1V43H4.5V102.8z
		 M19.3,57.8h30.2V88H19.3V57.8z"/>
	<path id="XMLID_1092_" class="st0" d="M81.3,74.5h-2l1.9-1.8l-1-1.1l-1.9,1.8l-1.9-1.7l-1,1.1l1.9,1.8h-1.9v5.8h5.8V74.5z
		 M79.8,78.9h-2.9V76h2.9V78.9z"/>
	<path id="XMLID_1083_" class="st0" d="M75.5,100.5h2l-1.9,1.8l1,1.1l1.9-1.8l1.9,1.7l1-1.1l-1.9-1.8h1.9v-5.8h-5.8V100.5z
		 M76.9,96.1h2.9V99h-2.9V96.1z"/>
	<path id="XMLID_1080_" class="st0" d="M81.3,119.8h-2l1.9-1.8l-1-1.1l-1.9,1.8l-1.9-1.7l-1,1.1l1.9,1.8h-1.9v5.8h5.8V119.8z
		 M79.8,124.2h-2.9v-2.9h2.9V124.2z"/>
	<path id="XMLID_1071_" class="st0" d="M75.5,145.8h2l-1.9,1.8l1,1.1l1.9-1.8l1.9,1.7l1-1.1l-1.9-1.8h1.9V140h-5.8V145.8z
		 M76.9,141.4h2.9v2.9h-2.9V141.4z"/>
	<path id="XMLID_1068_" class="st0" d="M81.3,165.2h-2l1.9-1.8l-1-1.1l-1.9,1.8l-1.9-1.7l-1,1.1l1.9,1.8h-1.9v5.8h5.8V165.2z
		 M79.8,169.5h-2.9v-2.9h2.9V169.5z"/>
</g>
</svg>
